<svg id="niteco_logo" data-name="logo" xmlns="http://www.w3.org/2000/svg" viewBox="0 0 414.59 130.45"><path class="cls-1" d="M68.18,67.11a35,35,0,0,0-3.85-9A32.78,32.78,0,0,0,51.07,45.76a39,39,0,0,0-17.92-4.17A34.81,34.81,0,0,0,22,43.33a30.44,30.44,0,0,0-9.22,4.92A33.46,33.46,0,0,0,2,62.27a39.6,39.6,0,0,0-3,14.4v52.13H14.65V77a20.17,20.17,0,0,1,2.7-10.15,20.81,20.81,0,0,1,7.14-7.61,16.94,16.94,0,0,1,9.29-2.7h.31c4.54,0,8.17,1.09,11.11,3.32a19.5,19.5,0,0,1,6.55,8.39,27.08,27.08,0,0,1,2.1,10v50.56H69.48V77.3A38.67,38.67,0,0,0,68.18,67.11Z"></path><path class="cls-1" d="M157.4,58.18V43h-27V22.19H114.74v79.57c0,8.49,2.46,15.21,7.3,19.94s11,7.11,18.28,7.11H157.4V113.32l-14.57.47a18.91,18.91,0,0,1-5.29-.71,15.74,15.74,0,0,1-4.05-1.76l-.17-.1c-2-1.17-2.7-4.46-2.95-7.09V58.18Z"></path><path class="cls-1" d="M411.53,69.49a45.78,45.78,0,0,0-8.62-14.23,41,41,0,0,0-13.68-10,42.59,42.59,0,0,0-17.81-3.69,41.64,41.64,0,0,0-19.05,4.24,42.33,42.33,0,0,0-13.81,11.05,47.11,47.11,0,0,0-8.1,14.41,45.25,45.25,0,0,0-2.61,14.61,41.35,41.35,0,0,0,1.41,10.64A59.49,59.49,0,0,0,333,106.71l.06.11a44.32,44.32,0,0,0,15.13,17,41,41,0,0,0,23.22,6.68,43.64,43.64,0,0,0,12.72-1.78,40,40,0,0,0,11-5.3,43.37,43.37,0,0,0,14.61-17.25A48.22,48.22,0,0,0,413.44,96a44.33,44.33,0,0,0,1.14-10.07A45.86,45.86,0,0,0,411.53,69.49Zm-40.12-13a24.45,24.45,0,0,1,7.42,1.12,26,26,0,0,1,6.58,3.14,31.1,31.1,0,0,1,13.53,25.12,33.25,33.25,0,0,1-3.2,13.68,28.28,28.28,0,0,1-9.48,11.47,26.83,26.83,0,0,1-29.55.05A29.05,29.05,0,0,1,347,99.77a32.89,32.89,0,0,1-2.48-6.91,31.48,31.48,0,0,1-.75-6.95,30.93,30.93,0,0,1,3.59-14.5,28.22,28.22,0,0,1,9.87-10.87A25.23,25.23,0,0,1,371.41,56.53Z"></path><rect class="cls-1 niteco_i" x="84.48" y="47.05" width="15.25" height="81.76"></rect><rect class="cls-1 niteco_dot" x="84.48" y="22.19" width="15.25" height="15.25"></rect><path class="cls-1" d="M227.84,111.84a60.71,60.71,0,0,1-6.68,2.65,23.89,23.89,0,0,1-7.62.94,53.22,53.22,0,0,1-6.53-.85c-5-1.15-10.93-3.77-14.11-6.7q-.52-.48-1-1l6-4,54.29-36.69s-1.53-2.86-2.12-3.76c-4.4-6.63-8.69-11-15.58-14.88A45.47,45.47,0,0,0,223.31,43a49.44,49.44,0,0,0-12-1.4,41.8,41.8,0,0,0-22,6.1,43.81,43.81,0,0,0-15.63,16.17A47.42,47.42,0,0,0,169,74.51a40.74,40.74,0,0,0-1.6,11.36A41.43,41.43,0,0,0,169,97.55a49,49,0,0,0,4.61,10.69,45,45,0,0,0,16.42,16c6.78,3.84,16.32,5.79,24.49,5.79q1.39,0,2.75-.08a45.88,45.88,0,0,0,18.21-4.86,41.47,41.47,0,0,0,16.31-14.93l.06-.11-12.19-8.15C236.8,105.5,233.45,109.14,227.84,111.84Zm-43.9-31.22a28.84,28.84,0,0,1,5.92-13.44,25.53,25.53,0,0,1,9.69-7.77,29.73,29.73,0,0,1,12.13-2.51,31.12,31.12,0,0,1,12.5,2.55,22.32,22.32,0,0,1,5.28,3.16l-45.15,30.6a23.79,23.79,0,0,1-.95-6.84C183.42,84.95,183.71,82.06,183.94,80.63Z"></path><path class="cls-1" d="M313.67,41.62l-2.85-.28c-.53,0-1.07-.06-1.59-.06h-3.3a66,66,0,0,0-18.22,2.53c-1.65.49-3.25,1-4.79,1.65l-.15.06A41.21,41.21,0,0,0,265.23,60c-.53.77-1,1.58-1.49,2.39l-.45.83c-.17.31-.32.63-.48.94a44.41,44.41,0,0,0-2.25,5.39c-.16.48-.32,1-.47,1.46-.06.21-.14.42-.2.64a52.86,52.86,0,0,0,0,27c.06.21.13.42.2.63.15.49.31,1,.47,1.46a44.4,44.4,0,0,0,2.25,5.39c.16.31.31.63.48.94l.45.83c.47.82,1,1.62,1.49,2.39a41.21,41.21,0,0,0,17.54,14.53l.15.06c1.54.61,3.15,1.16,4.79,1.65a66,66,0,0,0,18.22,2.53h3.3c.52,0,1.06,0,1.59-.06.71-.05,2.85-.28,2.85-.28l.19,0,4-.6V112.67l-5.22.6c-1.28.15-2.6.27-3.91.38s-2.48.14-3.65.14c-7.31,0-13.37-1.35-18-4a23.81,23.81,0,0,1-10-10.23,30.92,30.92,0,0,1-2.52-7.29,28.72,28.72,0,0,1-.77-6.75c0-.11,0-.21,0-.32s0-.21,0-.32a28.72,28.72,0,0,1,.77-6.75,30.93,30.93,0,0,1,2.52-7.29,23.81,23.81,0,0,1,10-10.23c4.66-2.65,10.72-4,18-4,1.17,0,2.4,0,3.65.14s2.63.23,3.91.38l5.22.6V42.24l-4-.6Z"></path></svg>